<mxfile host="Electron" modified="2023-06-27T12:05:52.321Z" agent="Mozilla/5.0 (Windows NT 10.0; Win64; x64) AppleWebKit/537.36 (KHTML, like Gecko) draw.io/21.2.8 Chrome/112.0.5615.165 Electron/24.2.0 Safari/537.36" etag="3ORpKBs5Ks10njnbQaIl" version="21.2.8" type="device">
  <diagram name="Page-1" id="Ovxf-N5QuJN4pjYAlrJD">
    <mxGraphModel dx="743" dy="480" grid="1" gridSize="10" guides="1" tooltips="1" connect="1" arrows="1" fold="1" page="1" pageScale="1" pageWidth="600" pageHeight="800" math="0" shadow="0">
      <root>
        <mxCell id="0" />
        <mxCell id="1" parent="0" />
        <mxCell id="yzkgML8GznNGnoveQ0pr-1" value="Admin" style="shape=umlActor;verticalLabelPosition=bottom;verticalAlign=top;html=1;outlineConnect=0;" parent="1" vertex="1">
          <mxGeometry x="75" y="288" width="30" height="60" as="geometry" />
        </mxCell>
        <mxCell id="yzkgML8GznNGnoveQ0pr-2" value="" style="swimlane;startSize=0;gradientColor=#82E1F0;gradientDirection=south;rounded=0;swimlaneFillColor=default;" parent="1" vertex="1">
          <mxGeometry x="145" y="63" width="270" height="675" as="geometry">
            <mxRectangle x="230" y="360" width="50" height="40" as="alternateBounds" />
          </mxGeometry>
        </mxCell>
        <mxCell id="yzkgML8GznNGnoveQ0pr-11" value="&lt;b&gt;DAILY EVENTS TRACKER APPLICATION&lt;/b&gt;" style="text;html=1;align=center;verticalAlign=middle;resizable=0;points=[];autosize=1;strokeColor=none;fillColor=none;" parent="yzkgML8GznNGnoveQ0pr-2" vertex="1">
          <mxGeometry x="10" y="30" width="250" height="30" as="geometry" />
        </mxCell>
        <mxCell id="yzkgML8GznNGnoveQ0pr-12" value="Add Event" style="ellipse;whiteSpace=wrap;html=1;" parent="yzkgML8GznNGnoveQ0pr-2" vertex="1">
          <mxGeometry x="75" y="150" width="120" height="50" as="geometry" />
        </mxCell>
        <mxCell id="yzkgML8GznNGnoveQ0pr-13" value="View Event" style="ellipse;whiteSpace=wrap;html=1;" parent="yzkgML8GznNGnoveQ0pr-2" vertex="1">
          <mxGeometry x="75" y="220" width="120" height="50" as="geometry" />
        </mxCell>
        <mxCell id="yzkgML8GznNGnoveQ0pr-15" value="Delete Event" style="ellipse;whiteSpace=wrap;html=1;" parent="yzkgML8GznNGnoveQ0pr-2" vertex="1">
          <mxGeometry x="75" y="355" width="120" height="50" as="geometry" />
        </mxCell>
        <mxCell id="yzkgML8GznNGnoveQ0pr-14" value="Update Event" style="ellipse;whiteSpace=wrap;html=1;" parent="yzkgML8GznNGnoveQ0pr-2" vertex="1">
          <mxGeometry x="75" y="290" width="120" height="50" as="geometry" />
        </mxCell>
        <mxCell id="yzkgML8GznNGnoveQ0pr-17" value="Search Event" style="ellipse;whiteSpace=wrap;html=1;" parent="yzkgML8GznNGnoveQ0pr-2" vertex="1">
          <mxGeometry x="75" y="420" width="120" height="50" as="geometry" />
        </mxCell>
        <mxCell id="yzkgML8GznNGnoveQ0pr-38" value="Update Status" style="ellipse;whiteSpace=wrap;html=1;" parent="yzkgML8GznNGnoveQ0pr-2" vertex="1">
          <mxGeometry x="75" y="490" width="120" height="50" as="geometry" />
        </mxCell>
        <mxCell id="yzkgML8GznNGnoveQ0pr-18" value="Comments" style="ellipse;whiteSpace=wrap;html=1;" parent="yzkgML8GznNGnoveQ0pr-2" vertex="1">
          <mxGeometry x="75" y="560" width="120" height="50" as="geometry" />
        </mxCell>
        <mxCell id="Qcrjbg_roBaVdaUWZpzf-1" value="Login/Sign Up" style="ellipse;whiteSpace=wrap;html=1;" parent="yzkgML8GznNGnoveQ0pr-2" vertex="1">
          <mxGeometry x="80" y="80" width="120" height="50" as="geometry" />
        </mxCell>
        <mxCell id="yzkgML8GznNGnoveQ0pr-7" value="&lt;u&gt;User&lt;br&gt;&lt;br&gt;&lt;/u&gt;" style="shape=umlActor;verticalLabelPosition=bottom;verticalAlign=top;html=1;outlineConnect=0;" parent="1" vertex="1">
          <mxGeometry x="495" y="288" width="30" height="60" as="geometry" />
        </mxCell>
        <mxCell id="yzkgML8GznNGnoveQ0pr-25" value="" style="endArrow=classic;html=1;rounded=0;exitX=1;exitY=0.3333333333333333;exitDx=0;exitDy=0;exitPerimeter=0;entryX=0;entryY=0.5;entryDx=0;entryDy=0;" parent="1" source="yzkgML8GznNGnoveQ0pr-1" target="yzkgML8GznNGnoveQ0pr-15" edge="1">
          <mxGeometry width="50" height="50" relative="1" as="geometry">
            <mxPoint x="115" y="318" as="sourcePoint" />
            <mxPoint x="225" y="358" as="targetPoint" />
          </mxGeometry>
        </mxCell>
        <mxCell id="yzkgML8GznNGnoveQ0pr-23" value="" style="endArrow=classic;html=1;rounded=0;exitX=1;exitY=0.3333333333333333;exitDx=0;exitDy=0;exitPerimeter=0;entryX=0;entryY=0.5;entryDx=0;entryDy=0;" parent="1" source="yzkgML8GznNGnoveQ0pr-1" target="yzkgML8GznNGnoveQ0pr-13" edge="1">
          <mxGeometry width="50" height="50" relative="1" as="geometry">
            <mxPoint x="115" y="308" as="sourcePoint" />
            <mxPoint x="245" y="218" as="targetPoint" />
          </mxGeometry>
        </mxCell>
        <mxCell id="yzkgML8GznNGnoveQ0pr-24" value="" style="endArrow=classic;html=1;rounded=0;exitX=1;exitY=0.3333333333333333;exitDx=0;exitDy=0;exitPerimeter=0;entryX=0;entryY=0.5;entryDx=0;entryDy=0;" parent="1" source="yzkgML8GznNGnoveQ0pr-1" target="yzkgML8GznNGnoveQ0pr-14" edge="1">
          <mxGeometry width="50" height="50" relative="1" as="geometry">
            <mxPoint x="115" y="298" as="sourcePoint" />
            <mxPoint x="225" y="278" as="targetPoint" />
          </mxGeometry>
        </mxCell>
        <mxCell id="Qcrjbg_roBaVdaUWZpzf-4" value="" style="endArrow=classic;html=1;rounded=0;entryX=0;entryY=0.5;entryDx=0;entryDy=0;exitX=1;exitY=0.3333333333333333;exitDx=0;exitDy=0;exitPerimeter=0;" parent="1" target="yzkgML8GznNGnoveQ0pr-12" edge="1" source="yzkgML8GznNGnoveQ0pr-1">
          <mxGeometry width="50" height="50" relative="1" as="geometry">
            <mxPoint x="115" y="308" as="sourcePoint" />
            <mxPoint x="236" y="193" as="targetPoint" />
          </mxGeometry>
        </mxCell>
        <mxCell id="Qcrjbg_roBaVdaUWZpzf-7" value="" style="endArrow=classic;html=1;rounded=0;exitX=0;exitY=0.3333333333333333;exitDx=0;exitDy=0;exitPerimeter=0;entryX=1;entryY=0.5;entryDx=0;entryDy=0;" parent="1" source="yzkgML8GznNGnoveQ0pr-7" target="yzkgML8GznNGnoveQ0pr-18" edge="1">
          <mxGeometry width="50" height="50" relative="1" as="geometry">
            <mxPoint x="343" y="512" as="sourcePoint" />
            <mxPoint x="343" y="512" as="targetPoint" />
            <Array as="points" />
          </mxGeometry>
        </mxCell>
        <mxCell id="Qcrjbg_roBaVdaUWZpzf-8" value="" style="endArrow=classic;html=1;rounded=0;entryX=0.958;entryY=0.26;entryDx=0;entryDy=0;entryPerimeter=0;" parent="1" target="yzkgML8GznNGnoveQ0pr-38" edge="1">
          <mxGeometry width="50" height="50" relative="1" as="geometry">
            <mxPoint x="495" y="308" as="sourcePoint" />
            <mxPoint x="350" y="663" as="targetPoint" />
            <Array as="points" />
          </mxGeometry>
        </mxCell>
        <mxCell id="34VD5sH2Ff12ou5-KfYe-1" value="" style="endArrow=classic;html=1;rounded=0;exitX=0;exitY=0.3333333333333333;exitDx=0;exitDy=0;exitPerimeter=0;entryX=1;entryY=0.5;entryDx=0;entryDy=0;" edge="1" parent="1" source="yzkgML8GznNGnoveQ0pr-7" target="yzkgML8GznNGnoveQ0pr-17">
          <mxGeometry width="50" height="50" relative="1" as="geometry">
            <mxPoint x="380" y="353" as="sourcePoint" />
            <mxPoint x="430" y="303" as="targetPoint" />
          </mxGeometry>
        </mxCell>
        <mxCell id="yzkgML8GznNGnoveQ0pr-22" value="" style="endArrow=classic;html=1;rounded=0;entryX=0.011;entryY=0.7;entryDx=0;entryDy=0;entryPerimeter=0;exitX=1;exitY=0.3333333333333333;exitDx=0;exitDy=0;exitPerimeter=0;" parent="1" target="Qcrjbg_roBaVdaUWZpzf-1" edge="1" source="yzkgML8GznNGnoveQ0pr-1">
          <mxGeometry width="50" height="50" relative="1" as="geometry">
            <mxPoint x="105" y="303" as="sourcePoint" />
            <mxPoint x="235" y="163" as="targetPoint" />
          </mxGeometry>
        </mxCell>
        <mxCell id="34VD5sH2Ff12ou5-KfYe-2" value="" style="endArrow=none;html=1;rounded=0;exitX=0;exitY=0;exitDx=0;exitDy=0;entryX=1;entryY=0;entryDx=0;entryDy=0;" edge="1" parent="1" source="yzkgML8GznNGnoveQ0pr-2" target="yzkgML8GznNGnoveQ0pr-2">
          <mxGeometry width="50" height="50" relative="1" as="geometry">
            <mxPoint x="150" y="60" as="sourcePoint" />
            <mxPoint x="280" y="40" as="targetPoint" />
          </mxGeometry>
        </mxCell>
      </root>
    </mxGraphModel>
  </diagram>
</mxfile>
